<svg width="100" height="100" viewBox="0 0 100 100" fill="none" xmlns="http://www.w3.org/2000/svg">
<rect width="100" height="100" fill="#3178C6"/>
<path d="M62.0654 63.7148C61.3799 64.4766 60.377 65.0902 59.0566 65.5557C57.7363 66.0212 56.2891 66.2539 54.7148 66.2539C52.2943 66.2539 50.3604 65.5133 48.9131 64.0322C47.4658 62.5511 46.6914 60.4902 46.5898 57.8496L46.5771 56.25C46.5771 54.4303 46.8988 52.8434 47.542 51.4893C48.1852 50.1266 49.1035 49.0814 50.2969 48.3535C51.4987 47.6172 52.8867 47.249 54.4609 47.249C56.763 47.249 58.5488 47.778 59.8184 48.8359C61.0964 49.8854 61.8411 51.4554 62.0527 53.5459H57.7617C57.6094 52.5133 57.2793 51.777 56.7715 51.3369C56.2637 50.8968 55.5443 50.6768 54.6133 50.6768C53.4961 50.6768 52.6328 51.1507 52.0234 52.0986C51.4141 53.0465 51.1051 54.4007 51.0967 56.1611V57.2783C51.0967 59.1234 51.4098 60.5114 52.0361 61.4424C52.6709 62.3649 53.6654 62.8262 55.0195 62.8262C56.179 62.8262 57.0423 62.568 57.6094 62.0518V59.1826H54.5117V56.123H62.0654V63.7148ZM76.1191 58.167H69.1113V62.5723H77.3887V66H64.6553V47.5156H77.4141V50.9561H69.1113V54.8535H76.1191V58.167ZM93.9688 50.9561H88.4209V66H83.9648V50.9561H78.5186V47.5156H93.9688V50.9561ZM57.1904 87.0869C57.1904 86.4352 56.9577 85.9274 56.4922 85.5635C56.0352 85.1995 55.2269 84.8229 54.0674 84.4336C52.9079 84.0443 51.96 83.6676 51.2236 83.3037C48.8285 82.1273 47.6309 80.5107 47.6309 78.4541C47.6309 77.43 47.9271 76.5286 48.5195 75.75C49.1204 74.9629 49.9668 74.3535 51.0586 73.9219C52.1504 73.4818 53.3776 73.2617 54.7402 73.2617C56.069 73.2617 57.2581 73.4987 58.3076 73.9727C59.3656 74.4466 60.1865 75.1237 60.7705 76.0039C61.3545 76.8757 61.6465 77.8743 61.6465 79H57.2031C57.2031 78.2467 56.9704 77.6628 56.5049 77.248C56.0479 76.8333 55.4258 76.626 54.6387 76.626C53.8431 76.626 53.2126 76.8037 52.7471 77.1592C52.29 77.5062 52.0615 77.9505 52.0615 78.4922C52.0615 78.9661 52.3154 79.3978 52.8232 79.7871C53.3311 80.168 54.224 80.5658 55.502 80.9805C56.7799 81.3867 57.8294 81.8268 58.6504 82.3008C60.6478 83.4518 61.6465 85.0387 61.6465 87.0615C61.6465 88.6781 61.0371 89.9476 59.8184 90.8701C58.5996 91.7926 56.9281 92.2539 54.8037 92.2539C53.3057 92.2539 51.9473 91.9873 50.7285 91.4541C49.5182 90.9124 48.6042 90.1761 47.9863 89.2451C47.377 88.3057 47.0723 87.2266 47.0723 86.0078H51.541C51.541 86.998 51.7949 87.7301 52.3027 88.2041C52.819 88.6696 53.6527 88.9023 54.8037 88.9023C55.54 88.9023 56.1198 88.7458 56.543 88.4326C56.9746 88.111 57.1904 87.6624 57.1904 87.0869ZM75.3955 84.167H68.3877V88.5723H76.665V92H63.9316V73.5156H76.6904V76.9561H68.3877V80.8535H75.3955V84.167ZM93.2451 76.9561H87.6973V92H83.2412V76.9561H77.7949V73.5156H93.2451V76.9561Z" fill="white"/>
</svg>
